<svg width="240" height="240" viewBox="0 0 240 240" fill="none" xmlns="http://www.w3.org/2000/svg" role="img" aria-labelledby="logoTitle logoDesc">
  <title id="logoTitle">Coffee Central logo</title>
  <desc id="logoDesc">Round emblem with coffee cup, steam, and coffee bean details in dark chocolate tones.</desc>
  <defs>
    <linearGradient id="bgGrad" x1="34" y1="20" x2="206" y2="222" gradientUnits="userSpaceOnUse">
      <stop stop-color="#3A2418"/>
      <stop offset="1" stop-color="#1A110C"/>
    </linearGradient>
    <linearGradient id="cupGrad" x1="76" y1="102" x2="170" y2="184" gradientUnits="userSpaceOnUse">
      <stop stop-color="#E7C29A"/>
      <stop offset="1" stop-color="#BD8A5F"/>
    </linearGradient>
    <linearGradient id="steamGrad" x1="84" y1="47" x2="152" y2="116" gradientUnits="userSpaceOnUse">
      <stop stop-color="#F7DDBD"/>
      <stop offset="1" stop-color="#C78953"/>
    </linearGradient>
    <filter id="innerGlow" x="17" y="17" width="206" height="206" filterUnits="userSpaceOnUse" color-interpolation-filters="sRGB">
      <feGaussianBlur stdDeviation="8" result="blur"/>
      <feComposite in="SourceGraphic" in2="blur" operator="over"/>
    </filter>
  </defs>

  <circle cx="120" cy="120" r="103" fill="url(#bgGrad)"/>
  <circle cx="120" cy="120" r="96" stroke="#C78953" stroke-opacity="0.72" stroke-width="2"/>
  <circle cx="120" cy="120" r="81" stroke="#F2C99A" stroke-opacity="0.25" stroke-width="1.6" stroke-dasharray="3.5 5"/>

  <g filter="url(#innerGlow)">
    <path d="M85 73C92 65 93 55 88 47" stroke="url(#steamGrad)" stroke-width="8" stroke-linecap="round"/>
    <path d="M117 76C124 67 126 56 121 47" stroke="url(#steamGrad)" stroke-width="8" stroke-linecap="round"/>
    <path d="M149 73C156 65 157 56 152 48" stroke="url(#steamGrad)" stroke-width="8" stroke-linecap="round"/>

    <path d="M71 112C71 99 81 89 93 89H147C159 89 169 99 169 112V136C169 160 150 179 126 179H114C90 179 71 160 71 136V112Z" fill="url(#cupGrad)"/>
    <path d="M86 103H154" stroke="#613C24" stroke-width="7" stroke-linecap="round"/>
    <path d="M168 113C181 113 191 123 191 136C191 149 181 159 168 159" stroke="#D8A474" stroke-width="11" stroke-linecap="round"/>

    <ellipse cx="120" cy="193" rx="52" ry="8" fill="#0C0704" fill-opacity="0.45"/>
  </g>

  <path d="M120 37C132 37 141 46 141 58C141 69 134 79 124 84C122 85 118 85 116 84C106 79 99 69 99 58C99 46 108 37 120 37Z" fill="#D79A61"/>
  <path d="M120 44C124 50 124 66 120 78C116 66 116 50 120 44Z" fill="#5A3117"/>
</svg>
